<svg xmlns="http://www.w3.org/2000/svg" width="201.218" height="75.142" viewBox="0 0 201.218 75.142">
  <g id="logo-enjoy" transform="translate(0 -492.858)">
    <g id="logo-enjoy-2" data-name="logo-enjoy">
      <path id="Path_661" data-name="Path 661" d="M0,40.063a25.41,25.41,0,0,1,1.7-9.677,20.751,20.751,0,0,1,4.464-6.913,18.569,18.569,0,0,1,6.36-4.187,19.9,19.9,0,0,1,7.386-1.422q8.848,0,13.983,5.411t5.131,15.919q0,1.028-.079,2.251t-.158,2.173h-26.7a7.823,7.823,0,0,0,3.4,5.767,13.652,13.652,0,0,0,8.058,2.133,34.016,34.016,0,0,0,6.36-.593,24,24,0,0,0,5.1-1.462l1.58,9.559a16.2,16.2,0,0,1-2.528.948,32.872,32.872,0,0,1-3.516.83q-1.935.355-4.147.593a41.373,41.373,0,0,1-4.424.237,26.2,26.2,0,0,1-9.765-1.659,19.011,19.011,0,0,1-6.873-4.547A18.029,18.029,0,0,1,1.308,48.59,27.083,27.083,0,0,1,0,40.063m27.65-4.5a12.145,12.145,0,0,0-.514-2.923A7.3,7.3,0,0,0,25.8,30.112,7.138,7.138,0,0,0,23.507,28.3a7.456,7.456,0,0,0-3.437-.711,7.906,7.906,0,0,0-3.4.672,7.03,7.03,0,0,0-2.37,1.777A7.944,7.944,0,0,0,12.839,32.6a16.81,16.81,0,0,0-.751,2.962ZM48.116,20.4a65.7,65.7,0,0,1,7.742-1.62,63.663,63.663,0,0,1,9.954-.75,24.249,24.249,0,0,1,8.809,1.382,13.236,13.236,0,0,1,5.569,3.91,15.235,15.235,0,0,1,2.923,6,31.986,31.986,0,0,1,.869,7.742V60.524H72.211V38.483q0-5.688-1.5-8.058T65.1,28.055q-1.264,0-2.686.118t-2.528.277V60.524H48.116Zm42.66,54.747q-1.105,0-3.279-.237a19.505,19.505,0,0,1-4.068-.869l1.58-9.559a13.775,13.775,0,0,0,2.172.553,16.191,16.191,0,0,0,2.489.158q2.765,0,3.871-1.659a8.692,8.692,0,0,0,1.106-4.822V18.97h11.771V59.024q0,8.216-4.029,12.166T90.776,75.139Zm16.753-68.18a6.46,6.46,0,0,1-2.094,5.1,7.505,7.505,0,0,1-9.879-.005,6.46,6.46,0,0,1-2.094-5.1,6.46,6.46,0,0,1,2.094-5.1,7.479,7.479,0,0,1,9.873.009,6.46,6.46,0,0,1,2.1,5.1" transform="translate(0 492.858)" fill="#20232c"/>
      <path id="Path_662" data-name="Path 662" d="M127.116,12.968a6.209,6.209,0,0,1-4.266-1.62,5.578,5.578,0,0,1-1.821-4.386,5.574,5.574,0,0,1,1.817-4.385,6.427,6.427,0,0,1,8.532,0A5.578,5.578,0,0,1,133.2,6.962a5.579,5.579,0,0,1-1.817,4.384,6.209,6.209,0,0,1-4.262,1.62Z" transform="translate(0 492.89)" fill="#20232c"/>
      <path id="Path_663" data-name="Path 663" d="M144.733,12.968a6.209,6.209,0,0,1-4.266-1.62,5.579,5.579,0,0,1-1.817-4.384,5.578,5.578,0,0,1,1.817-4.385,6.427,6.427,0,0,1,8.532,0,5.578,5.578,0,0,1,1.817,4.385A5.579,5.579,0,0,1,149,11.348a6.208,6.208,0,0,1-4.27,1.618Z" transform="translate(0 492.89)" fill="#20232c"/>
      <path id="Path_664" data-name="Path 664" d="M154.845,30.742a20.091,20.091,0,0,0-4.187-6.873,18.751,18.751,0,0,0-6.438-4.424,21.072,21.072,0,0,0-8.256-1.58,20.858,20.858,0,0,0-8.176,1.58,19.156,19.156,0,0,0-6.478,4.424,20.241,20.241,0,0,0-4.266,6.873,24.8,24.8,0,0,0-1.54,8.927,25.737,25.737,0,0,0,1.5,8.966,20.442,20.442,0,0,0,4.187,6.952,18.5,18.5,0,0,0,6.438,4.463,22.983,22.983,0,0,0,16.749,0,18.486,18.486,0,0,0,6.443-4.463,19.481,19.481,0,0,0,4.108-6.952,27,27,0,0,0,1.417-8.967,25.394,25.394,0,0,0-1.5-8.926m-12.68,17.576a7.051,7.051,0,0,1-6.2,3.2,7.149,7.149,0,0,1-6.241-3.2q-2.213-3.2-2.212-8.65t2.212-8.572a7.2,7.2,0,0,1,6.241-3.121,7.1,7.1,0,0,1,6.2,3.121q2.174,3.121,2.173,8.572t-2.173,8.65" transform="translate(0 492.858)" fill="#20232c"/>
      <path id="Path_665" data-name="Path 665" d="M201.218,18.968q-3.555,12.007-7.426,22.515t-8.453,20.384a46.165,46.165,0,0,1-3.318,6.044,18.555,18.555,0,0,1-3.634,4.108,12.79,12.79,0,0,1-4.464,2.37,20.167,20.167,0,0,1-5.807.75,23.679,23.679,0,0,1-5.1-.514,22.636,22.636,0,0,1-3.832-1.145l2.054-9.4a20.054,20.054,0,0,0,3.239.869,18.269,18.269,0,0,0,3,.237,6.576,6.576,0,0,0,4.858-1.7,13.638,13.638,0,0,0,2.894-4.7q-4.029-7.9-8.058-17.735a221.046,221.046,0,0,1-7.584-22.081h12.48q.79,3.081,1.857,6.675t2.251,7.268q1.185,3.674,2.41,7.149t2.331,6.32q1.027-2.844,2.133-6.32t2.173-7.149q1.066-3.673,2.054-7.268t1.777-6.675Z" transform="translate(0 492.858)" fill="#20232c"/>
    </g>
  </g>
</svg>
